<svg width="100" height="100" viewBox="0 0 100 100" xmlns="http://www.w3.org/2000/svg">
  <!-- Outer circle (gold border) -->
  <circle cx="50" cy="50" r="48" fill="none" stroke="#B8860B" stroke-width="2"/>

  <!-- Inner circle (dark green) -->
  <circle cx="50" cy="50" r="45" fill="#006847"/>

  <!-- Shield/Eagle silhouette (simplified Mexican government symbol) -->
  <path d="M 50 20 L 58 28 L 58 40 L 54 45 L 54 50 L 58 55 L 58 65 L 50 72 L 42 65 L 42 55 L 46 50 L 46 45 L 42 40 L 42 28 Z"
        fill="#FFD700" stroke="#B8860B" stroke-width="1"/>

  <!-- Central star -->
  <circle cx="50" cy="45" r="8" fill="#FFFFFF"/>
  <path d="M 50 38 L 52 43 L 57 43 L 53 46 L 55 51 L 50 48 L 45 51 L 47 46 L 43 43 L 48 43 Z"
        fill="#006847"/>

  <!-- Text arc (GOBIERNO) -->
  <path id="textPath1" d="M 15 50 A 35 35 0 0 1 85 50" fill="none"/>
  <text font-family="Arial, sans-serif" font-size="8" font-weight="bold" fill="#FFD700">
    <textPath href="#textPath1" startOffset="50%" text-anchor="middle">
      GOBIERNO FEDERAL
    </textPath>
  </text>

  <!-- Text arc bottom (MEXICO) -->
  <path id="textPath2" d="M 85 50 A 35 35 0 0 1 15 50" fill="none"/>
  <text font-family="Arial, sans-serif" font-size="8" font-weight="bold" fill="#FFD700">
    <textPath href="#textPath2" startOffset="50%" text-anchor="middle">
      MÉXICO
    </textPath>
  </text>

  <!-- Inner decorative elements -->
  <circle cx="50" cy="50" r="40" fill="none" stroke="#FFD700" stroke-width="0.5" opacity="0.5"/>
</svg>
